<?xml version="1.0" standalone="no"?><!DOCTYPE svg PUBLIC "-//W3C//DTD SVG 1.1//EN" "http://www.w3.org/Graphics/SVG/1.1/DTD/svg11.dtd"><svg class="icon" width="200px" height="200.00px" viewBox="0 0 1024 1024" version="1.1" xmlns="http://www.w3.org/2000/svg"><path d="M523.671467 256a174.549333 174.549333 0 1 0 0 349.098667 174.549333 174.549333 0 0 0 0-349.098667zM512.023467 628.352c-182.357333 0-286.72 63.274667-302.592 182.826667 169.728 159.658667 435.370667 159.658667 605.098666 0-15.786667-119.552-120.106667-182.826667-302.506666-182.826667z m0 395.648A511.957333 511.957333 0 0 1 146.498133 153.472 508.842667 508.842667 0 0 1 501.442133 0h10.666667a511.914667 511.914667 0 0 1 365.44 870.528A508.928 508.928 0 0 1 522.818133 1024H512.023467z" /></svg>