<?xml version="1.0" standalone="no"?><!DOCTYPE svg PUBLIC "-//W3C//DTD SVG 1.1//EN" "http://www.w3.org/Graphics/SVG/1.1/DTD/svg11.dtd"><svg class="icon" width="200px" height="200.00px" viewBox="0 0 1024 1024" version="1.1" xmlns="http://www.w3.org/2000/svg"><path d="M0 841.142857a512 182.857143 0 1 0 1024 0 512 182.857143 0 1 0-1024 0Z" fill="#FFEADA" /><path d="M153.6 841.142857a358.4 128 0 1 0 716.8 0 358.4 128 0 1 0-716.8 0Z" fill="#FFF1E6" /><path d="M772.845714 814.354286c14.500571-1.060571 25.380571-13.275429 24.32-27.318857v-1.170286c8.155429-2.706286 32.731429 0.786286 47.597715 8.301714 24.96 12.544 64.256 16.219429 87.808-1.718857 15.835429-12.013714 21.76-31.232 16.292571-52.626286-18.998857-74.185143-87.661714-81.846857-142.811429-88.045714-39.698286-4.443429-77.275429-8.594286-95.195428-33.426286-16.603429-22.912-15.414857-52.589714-8.228572-93.092571 2.194286-13.750857-7.405714-26.605714-21.577142-28.964572-14.153143-2.340571-27.648 6.674286-30.354286 20.333715-5.339429 30.098286-15.36 86.162286 16.969143 130.852571 31.542857 43.465143 85.101714 49.572571 132.333714 54.857143 55.899429 6.180571 87.990857 11.611429 97.718857 49.645714a15.36 15.36 0 0 1 0.237714 1.133715c-6.034286 1.499429-19.510857 0.548571-28.836571-4.132572-15.926857-8.082286-69.010286-26.203429-102.308571-4.992-15.835429 9.947429-23.771429 26.715429-22.290286 46.774857 1.042286 13.312 12.525714 23.606857 26.349714 23.588572h1.974857z" fill="#F9999A" /><path d="M321.865143 176.420571s-27.300571-97.609143-9.325714-108.434285c17.993143-10.843429 103.533714 41.270857 103.533714 41.270857 34.925714-10.514286 61.312-11.245714 96.274286-0.731429 34.962286 10.532571 73.856-59.739429 103.076571-40.557714 31.945143 20.809143-7.68 108.507429-7.68 108.507429l-1.499429-0.786286c35.291429 62.317714 35.693714 123.209143-14.116571 176.585143 3.712 3.913143 67.510857 13.165714 100.845714 55.241143 33.334857 42.075429 117.028571 207.177143 78.537143 285.476571 0 61.860571-48.420571 87.972571-89.581714 103.68-57.819429 22.034286-130.998857 42.642286-171.026286 6.546286-10.294857-9.325714-12.598857-15.451429-10.057143-27.830857 3.017143-14.573714 15.963429-24.978286 53.467429-41.234286 5.266286-2.285714-11.355429-17.152-11.355429-17.152-64.438857 13.860571-111.506286-35.328-166.784-150.308572-14.610286-30.372571-47.085714-164.900571-25.947428-205.696-42.057143-52.900571-59.721143-127.122286-26.88-185.234285l-1.481143 0.658285z" fill="#F9999A" /><path d="M368.274286 525.988571c8.704 55.625143 8.283429 68.498286 8.283428 119.314286 0 50.834286 1.005714 57.161143-8.283428 83.419429-7.186286 20.425143-46.171429 22.656-30.336 45.933714 8.96 13.110857 63.689143 16.859429 79.177143 10.294857 29.568-12.489143 51.785143-65.755429 51.748571-88.813714 0-61.677714-6.674286-109.714286-16.402286-170.148572" fill="#F9999A" /><path d="M451.949714 632.685714c1.024 28.288-1.755429 57.161143-10.733714 82.889143-6.985143 19.913143-34.962286 65.152-19.492571 88.009143 8.630857 12.818286 77.421714 13.056 92.361142 6.637714 28.470857-12.251429 52.845714-72.155429 52.772572-94.646857 0-92.397714-116.736-131.693714-114.907429-82.889143z" fill="#F9999A" /></svg>