<?xml version="1.0" standalone="no"?><!DOCTYPE svg PUBLIC "-//W3C//DTD SVG 1.1//EN" "http://www.w3.org/Graphics/SVG/1.1/DTD/svg11.dtd"><svg class="icon" width="200px" height="200.00px" viewBox="0 0 1024 1024" version="1.1" xmlns="http://www.w3.org/2000/svg"><path d="M751.53408 173.525333s-58.026667 76.714667-70.442667 121.258667c-12.458667 44.544-59.093333 54.912-82.901333 78.72s-249.813333 51.797333-316.074667 415.573333c0 0 0 50.858667-62.165333 65.28-62.208 14.592-132.736 31.573333-145.066667 15.573334-11.52-14.762667 78.677333-48.725333 78.677334-48.725334s44.544-29.013333 44.544-40.448c0-11.392-81.92 20.693333-81.92 20.693334S-43.431253 855.381333 11.56608 913.493333c54.912 58.026667 258.090667 0 296.448-16.512 38.4-16.554667 94.293333-24.917333 120.277333-2.133333 25.898667 22.869333 43.52 33.194667 132.608 28.032s163.712-5.162667 163.712-5.162667 34.176-33.194667-29.013333-48.725333l-57.941333-4.224s-47.658667 1.024-9.386667-49.706667c38.4-50.816 36.266667-83.882667 36.266667-83.882666s23.808-0.981333 32.085333 38.357333c8.277333 39.338667 20.736 118.186667 88.064 124.330667 0 0 14.549333 47.658667 89.088 21.76 0 0 38.4-20.736-9.386667-43.562667l-17.621333-3.072s-74.666667-139.946667-71.552-181.333333c0 0-8.277333-33.237333 19.754667-57.045334 27.989333-23.808 102.613333-117.077333 59.093333-284.970666 0 0-9.386667-20.693333 53.888-27.989334 63.146667-7.253333 71.552-40.448 79.786667-80.810666 0 0-3.072-13.44-17.621334-24.917334l-13.44-15.658666s-18.645333-63.146667-104.618666-57.002667l-7.253334-9.386667L834.392747 85.333333s-23.808 6.186667-24.917334 32.085334l-16.554666-20.736c0 0.128-38.4 18.773333-41.429334 76.842666z" fill="#FD7AB8" /></svg>