<?xml version="1.0" standalone="no"?><!DOCTYPE svg PUBLIC "-//W3C//DTD SVG 1.1//EN" "http://www.w3.org/Graphics/SVG/1.1/DTD/svg11.dtd"><svg class="icon" width="200px" height="200.00px" viewBox="0 0 1024 1024" version="1.1" xmlns="http://www.w3.org/2000/svg"><path d="M704.7 992.1V656.5c0-107.8-86.5-194.3-194.3-194.3s-194.3 86.6-194.3 194.3v335.6H201.4c-61.8 0-97.1-53-114.8-106L7.1 529.3c-10.6-44.2-8.8-91.9 5.3-136l74.2-249.1c17.7-53 53-106 114.8-106h618.1c61.8 0 97.1 53 114.8 106l75.9 250.8c14.1 44.2 15.9 91.9 5.3 136L936 886.1c-17.7 70.7-56.5 106-114.8 106H704.7z m-203.9-83.6c-13.3-13.1-14.9-33.4-5-48.3L401.3 767c-15.1 9.8-35.7 8.2-48.9-4.9a38.03 38.03 0 0 1 0-54.3c8.5-8.3 20.1-12.1 31.3-11-2.3-12.1 1.3-25 10.7-34.2 15.2-15 39.9-15 55 0 13.3 13.1 14.9 33.4 5 48.3l94.5 93.2c15.1-9.8 35.7-8.2 48.9 4.9 15.2 15 15.2 39.3 0 54.3-8.5 8.3-20.1 12.1-31.3 11 2.3 12.1-1.3 24.9-10.7 34.2-15.1 15-39.9 15-55 0z" /></svg>