<?xml version="1.0" standalone="no"?><!DOCTYPE svg PUBLIC "-//W3C//DTD SVG 1.1//EN" "http://www.w3.org/Graphics/SVG/1.1/DTD/svg11.dtd"><svg class="icon" width="200px" height="200.00px" viewBox="0 0 1024 1024" version="1.1" xmlns="http://www.w3.org/2000/svg"><path d="M614.06 884.33H92.63c-13.63 0-26.7-5.41-36.33-15.05a51.362 51.362 0 0 1-15.05-36.33V190.58c0.01-28.37 23.01-51.37 51.38-51.37h786.14a51.385 51.385 0 0 1 51.39 51.39v238.73l-69.32-15.14v-146.6c0-13.63-5.41-26.7-15.04-36.34a51.385 51.385 0 0 0-36.34-15.05H164.17a51.385 51.385 0 0 0-51.39 51.39v353.44l224.43-237.24L545.06 578.5c-8.18 78.27-8.18 135.51 0 171.74 8.17 36.24 31.18 80.93 69 134.09z m0 0"  /><path d="M880.49 497.23c-63.1-37.06-140.84-37.06-203.94 0-63.1 37.06-101.96 105.54-101.96 179.66 0 74.11 38.86 142.6 101.96 179.65 63.1 37.06 140.84 37.06 203.94 0C943.58 819.48 982.45 751 982.45 676.89s-38.87-142.6-101.96-179.66z m-128.12 83.03c0-17.13 8.57-25.7 25.7-25.7h0.89c17.13 0 25.7 8.57 25.7 25.7v108.17c0 17.13-8.57 25.7-25.7 25.7h-0.89c-17.13 0-25.7-8.57-25.7-25.7V580.26z m39.23 215.41a25.775 25.775 0 0 1-26.15 0c-8.09-4.75-13.08-13.54-13.08-23.04s4.98-18.29 13.08-23.04a25.775 25.775 0 0 1 26.15 0c8.09 4.75 13.07 13.53 13.07 23.04 0 9.5-4.98 18.29-13.07 23.04z"  /></svg>